Coordinates
version=1
nRows=5
nColumns=46
inDegrees=yes

Units are S.I. units (second, meters, Newtons, ...)
Angles are in degrees.

endheader
time	pelvis_tilt	pelvis_list	pelvis_rotation	pelvis_tx	pelvis_ty	pelvis_tz	bb_angle	bb_tx	bb_ty	bb_tz	hip_flexion_r	hip_adduction_r	hip_rotation_r	knee_angle_r	knee_angle_r_beta	ankle_angle_r	subtalar_angle_r	mtp_angle_r	crank_angle_r	hip_flexion_l	hip_adduction_l	hip_rotation_l	knee_angle_l	knee_angle_l_beta	ankle_angle_l	subtalar_angle_l	mtp_angle_l	crank_angle_l	lumbar_extension	lumbar_bending	lumbar_rotation	arm_flex_r	arm_add_r	arm_rot_r	elbow_flex_r	pro_sup_r	wrist_flex_r	wrist_dev_r	arm_flex_l	arm_add_l	arm_rot_l	elbow_flex_l	pro_sup_l	wrist_flex_l	wrist_dev_l
      7.50500000	    -19.81896915	      5.66696099	      7.27349061	      0.34131867	      1.11446090	     -0.26106561	      0.00000000	      0.50000000	      0.00000000	      0.25000000	     30.33909626	    -13.40606002	    -10.52192299	     34.81649635	      0.60766250	    -20.52887121	    -13.12587690	      0.00000000	      0.00000000	     82.56876843	     -0.66399485	     -1.77153816	    115.71274098	      2.01956832	      0.41757868	     -4.65575336	      0.00000000	      0.00000000	    -52.99093149	     -1.59562022	     -9.16306495	     69.14189192	    -11.60512173	     47.93913457	     31.46205076	     48.10823935	      0.00000000	      0.00000000	     74.44034531	    -15.32999325	     62.63378275	     39.01463145	     49.43707428	      0.00000000	      0.00000000
      7.51000000	    -19.63967364	      5.87527702	      7.38025416	      0.34147765	      1.11517863	     -0.26069917	      0.00000000	      0.50000000	      0.00000000	      0.25000000	     30.00474221	    -13.63689133	    -10.42739524	     35.74094396	      0.62379715	    -20.69991540	    -13.50931379	      0.00000000	      0.00000000	     82.84539332	     -0.44047955	     -1.97669827	    115.19402571	      2.01051503	      0.83980649	     -4.52797243	      0.00000000	      0.00000000	    -53.26182029	     -1.74079327	     -9.30710095	     69.21805800	    -11.65370751	     47.98014524	     31.39087676	     48.10339280	      0.00000000	      0.00000000	     74.51417458	    -15.21974192	     62.51184814	     39.03291901	     49.41385208	      0.00000000	      0.00000000
      7.51500000	    -19.40036900	      6.16720155	      7.49633569	      0.34167281	      1.11634660	     -0.26029953	      0.00000000	      0.50000000	      0.00000000	      0.25000000	     29.65079807	    -13.90605585	    -10.10140767	     36.72550376	      0.64098096	    -20.96838563	    -14.04848814	      0.00000000	      0.00000000	     82.87808050	     -0.15527742	     -2.24002895	    114.48329744	      1.99811048	      1.27816890	     -4.12159571	      0.00000000	      0.00000000	    -53.65030494	     -1.94768670	     -9.56914449	     69.30340365	    -11.64536377	     48.16577590	     31.20393164	     48.11607945	      0.00000000	      0.00000000	     74.65736961	    -15.10976436	     62.47054293	     38.92859062	     49.38655716	      0.00000000	      0.00000000
      7.52000000	    -19.14156879	      6.29432859	      7.61449247	      0.34179363	      1.11749871	     -0.25999948	      0.00000000	      0.50000000	      0.00000000	      0.25000000	     29.37389181	    -14.00816405	     -9.78459489	     37.89570448	      0.66140482	    -21.11679587	    -14.60582969	      0.00000000	      0.00000000	     82.84179864	      0.12705892	     -2.34095319	    113.66551933	      1.98383756	      1.68409599	     -3.90587657	      0.00000000	      0.00000000	    -54.03568202	     -1.97091185	     -9.66148084	     69.43464892	    -11.65278844	     48.26876349	     31.07341873	     48.11811108	      0.00000000	      0.00000000	     74.81084962	    -15.02471934	     62.44066795	     38.85451947	     49.36647979	      0.00000000	      0.00000000
      7.52500000	    -18.85026150	      6.48227252	      7.71353027	      0.34188195	      1.11889823	     -0.25970826	      0.00000000	      0.50000000	      0.00000000	      0.25000000	     29.16680720	    -14.14289542	     -9.33890315	     39.19098310	      0.68401169	    -21.36024378	    -15.28128311	      0.00000000	      0.00000000	     82.59869030	      0.44468610	     -2.51510443	    112.67768638	      1.96659662	      2.09549047	     -3.71908118	      0.00000000	      0.00000000	    -54.46381881	     -2.06840350	     -9.83018060	     69.58018084	    -11.63121881	     48.44934218	     30.87694823	     48.12392587	      0.00000000	      0.00000000	     75.01958382	    -14.89540961	     62.43944119	     38.71007066	     49.33742084	      0.00000000	      0.00000000
